<svg width="20" height="20" viewBox="0 0 20 20" fill="none" xmlns="http://www.w3.org/2000/svg">
<g clip-path="url(#clip0_2216_1088)">
<path d="M18.334 7.49977H14.3423L10.6923 2.03311C10.534 1.79977 10.2673 1.68311 10.0007 1.68311C9.73398 1.68311 9.46732 1.79977 9.30898 2.04144L5.65898 7.49977H1.66732C1.20898 7.49977 0.833984 7.87477 0.833984 8.33311C0.833984 8.40811 0.842318 8.48311 0.867318 8.55811L2.98398 16.2831C3.17565 16.9831 3.81732 17.4998 4.58398 17.4998H15.4173C16.184 17.4998 16.8257 16.9831 17.0257 16.2831L19.1423 8.55811L19.1673 8.33311C19.1673 7.87477 18.7923 7.49977 18.334 7.49977ZM10.0007 3.99977L12.334 7.49977H7.66732L10.0007 3.99977ZM15.4173 15.8331L4.59232 15.8414L2.75898 9.16644H17.2507L15.4173 15.8331Z" fill="white"/>
</g>
<defs>
<clipPath id="clip0_2216_1088">
<rect width="20" height="20" fill="white"/>
</clipPath>
</defs>
</svg>
