<svg width="20" height="20" viewBox="0 0 20 20" fill="none" xmlns="http://www.w3.org/2000/svg">
<path d="M14.5833 4.1665H5.41667H5V17.0832L10 14.1665L14.5833 16.6665V4.1665Z" fill="white"/>
<path d="M5.07498 17.55C4.85397 17.55 4.64201 17.4622 4.48573 17.3059C4.32945 17.1496 4.24165 16.9377 4.24165 16.7167L4.11665 4.5C4.10662 4.25195 4.14572 4.00437 4.23171 3.77149C4.31771 3.53861 4.44889 3.32503 4.61772 3.14303C4.78656 2.96104 4.9897 2.81421 5.21548 2.71101C5.44126 2.6078 5.68522 2.55025 5.93332 2.54167L13.925 2.5C14.1734 2.50434 14.4186 2.55758 14.6464 2.65667C14.8743 2.75577 15.0803 2.89878 15.2529 3.07754C15.4255 3.2563 15.5612 3.46731 15.6522 3.69851C15.7432 3.92971 15.7877 4.17657 15.7833 4.425L15.9 16.6417C15.9014 16.7877 15.8644 16.9315 15.7928 17.0588C15.7211 17.186 15.6173 17.2922 15.4917 17.3667C15.365 17.4398 15.2213 17.4783 15.075 17.4783C14.9287 17.4783 14.785 17.4398 14.6583 17.3667L9.90832 14.7333L5.49998 17.425C5.36944 17.4979 5.22422 17.5406 5.07498 17.55ZM9.87499 12.925C10.0198 12.9253 10.1625 12.9595 10.2917 13.025L14.2167 15.2L14.1167 4.40833C14.1167 4.24167 14.0083 4.125 13.9417 4.13333L5.94165 4.20833C5.87498 4.20833 5.78332 4.31667 5.78332 4.48333L5.88332 15.2333L9.44999 13.0417C9.57952 12.9675 9.72574 12.9274 9.87499 12.925Z" fill="#2E1B0E"/>
</svg>
