<svg width="20" height="20" viewBox="0 0 20 20" fill="none" xmlns="http://www.w3.org/2000/svg">
<path d="M2.69793 4.53368L4.82794 2.40595C5.08794 2.14598 5.43595 2 5.80395 2C6.17195 2 6.51995 2.14398 6.77995 2.40595L9.07396 4.69566C9.33396 4.95563 9.47996 5.30559 9.47996 5.67354C9.47996 6.0435 9.33596 6.38945 9.07396 6.65142L7.28195 8.44519C7.69019 9.39625 8.27675 10.2604 9.00996 10.9909C9.74396 11.7288 10.602 12.3107 11.554 12.7227L13.346 10.9289C13.606 10.6689 13.954 10.5229 14.322 10.5229C14.5035 10.5223 14.6833 10.5578 14.8509 10.6275C15.0185 10.6972 15.1705 10.7997 15.298 10.9289L17.594 13.2186C17.854 13.4786 18 13.8285 18 14.1965C18 14.5664 17.856 14.9124 17.594 15.1744L15.466 17.3021C15.022 17.746 14.41 18 13.782 18C13.652 18 13.526 17.99 13.398 17.968C10.75 17.5321 8.12196 16.1222 5.99995 14.0025C3.87994 11.8788 2.47193 9.25109 2.03193 6.60143C1.90593 5.84952 2.15793 5.07562 2.69793 4.53368ZM3.44994 6.36346C3.83994 8.72116 5.10794 11.0729 7.01795 12.9826C8.92796 14.8924 11.278 16.1602 13.636 16.5502C13.932 16.6002 14.236 16.5002 14.452 16.2862L16.542 14.1965L14.326 11.9788L11.93 14.3785L11.912 14.3965L11.48 14.2365C10.1701 13.7549 8.98063 12.9944 7.99397 12.0075C7.00732 11.0206 6.24708 9.83105 5.76595 8.52119L5.60595 8.08924L8.02196 5.67554L5.80595 3.45782L3.71594 5.54756C3.49994 5.76353 3.39994 6.06749 3.44994 6.36346Z" fill="black"/>
</svg>
