<svg width="24" height="24" viewBox="0 0 24 24" fill="none" xmlns="http://www.w3.org/2000/svg">
<path fill-rule="evenodd" clip-rule="evenodd" d="M6.41517 1.83358C6.57241 1.95707 6.74901 2.12322 6.95218 2.32389C7.38747 2.7523 7.89246 3.43869 8.32578 4.09762C8.76396 4.76393 9.16999 5.46537 9.39757 5.95358L9.39771 5.95389L9.39786 5.95421C9.52685 6.2316 9.64312 6.48297 9.72484 6.70329C9.80783 6.92702 9.8768 7.17311 9.87724 7.44167C9.87818 8.00381 9.57306 8.43767 9.27915 8.83785C9.19471 8.9528 9.12297 9.04701 9.06114 9.1282C8.92785 9.30322 8.84048 9.41795 8.77053 9.55065C8.7023 9.68008 8.68239 9.77353 8.71468 9.92397C8.76125 10.1409 8.9637 10.6157 9.35682 11.2369C9.737 11.8377 10.2575 12.5153 10.8795 13.1352C11.5013 13.755 12.1681 14.2618 12.7569 14.6286C13.3635 15.0065 13.8308 15.2004 14.0539 15.248C14.2092 15.2812 14.3062 15.2604 14.4359 15.1929C14.5727 15.1217 14.6944 15.0288 14.8837 14.8843C14.9581 14.8275 15.0429 14.7627 15.1432 14.6882L15.1433 14.6881L15.1509 14.6825C15.5524 14.3841 15.9986 14.0527 16.564 14.0533C16.8434 14.0536 17.0942 14.1325 17.315 14.2226C17.526 14.3087 17.7683 14.4308 18.0342 14.5647L18.0564 14.5759C18.5224 14.8109 19.2152 15.209 19.8859 15.6429C20.5448 16.0691 21.24 16.5667 21.6729 17.0029L21.6736 17.0035C21.8748 17.2068 22.0414 17.3834 22.1652 17.5406C22.285 17.6927 22.4165 17.8895 22.472 18.1344C22.5345 18.4101 22.4778 18.6396 22.4198 18.7987C22.3936 18.8705 22.3627 18.9393 22.3405 18.9886C22.3371 18.9963 22.3337 19.0038 22.3304 19.0111C22.3098 19.0568 22.2918 19.0967 22.2727 19.1423L22.2723 19.1434L22.2718 19.1445C22.0759 19.6091 21.8376 20.0547 21.5599 20.4755L21.5591 20.4768L21.5582 20.4781C21.0156 21.2932 20.5051 21.8259 19.7117 22.1955C19.2993 22.3875 18.7102 22.5815 17.7946 22.4673C16.914 22.3575 15.7683 21.9676 14.2046 21.0918L14.2042 21.0916C11.702 19.6883 9.96572 18.4784 7.72602 16.245C5.49289 14.0181 4.39525 12.5646 2.85764 9.77134C1.3097 6.95927 1.31191 5.22515 1.75397 4.28053C2.12513 3.4874 2.6631 2.97929 3.47558 2.4395L3.47718 2.43844L3.47878 2.43738C3.90009 2.16058 4.34587 1.92293 4.81053 1.72743L4.81206 1.72678L4.81359 1.72615C4.85958 1.70704 4.8998 1.68901 4.94579 1.66839C4.953 1.66516 4.96035 1.66187 4.96789 1.65849C5.0173 1.63638 5.08621 1.60564 5.15791 1.5796C5.31683 1.52187 5.5458 1.46548 5.82107 1.52755C6.06581 1.58274 6.2627 1.71383 6.41517 1.83358ZM5.39084 3.11063C5.01169 3.27025 4.64791 3.46417 4.30403 3.68997C3.61766 4.14617 3.32343 4.46572 3.11256 4.91631C2.97243 5.21575 2.71309 6.39819 4.17171 9.048C5.64065 11.7166 6.65239 13.056 8.78519 15.1828C10.9113 17.303 12.5322 18.4341 14.9376 19.7831C16.4095 20.6075 17.3638 20.902 17.9802 20.9788C18.5617 21.0514 18.8667 20.9343 19.0783 20.8357C19.5324 20.6242 19.8534 20.332 20.3088 19.648C20.5352 19.3047 20.7295 18.9414 20.8893 18.5625C20.9109 18.511 20.932 18.4633 20.9499 18.4235C20.88 18.3405 20.7728 18.2258 20.608 18.0593C20.2965 17.7455 19.7182 17.3209 19.0711 16.9023C18.4358 16.4913 17.7901 16.1216 17.3813 15.9154C17.0863 15.7668 16.8973 15.6722 16.7481 15.6113C16.603 15.5521 16.5608 15.5533 16.5625 15.5533C16.576 15.5533 16.5297 15.5268 16.0379 15.8922C15.9876 15.9295 15.9333 15.9712 15.8758 16.0152C15.6567 16.1832 15.3914 16.3866 15.1285 16.5235C14.7356 16.728 14.2846 16.831 13.741 16.715C13.2653 16.6136 12.6237 16.3128 11.9638 15.9018C11.286 15.4796 10.5285 14.9034 9.82049 14.1976C9.11259 13.4919 8.52359 12.7253 8.08932 12.0391C7.66798 11.3733 7.35106 10.7184 7.24809 10.2388C7.13086 9.69268 7.23775 9.24168 7.44361 8.85115C7.57628 8.59949 7.7746 8.33947 7.93782 8.12546C7.98584 8.06249 8.03083 8.00351 8.07021 7.94989C8.3855 7.5206 8.3781 7.45217 8.37729 7.44471C8.37727 7.44446 8.37725 7.44428 8.37725 7.44415C8.37722 7.4297 8.37389 7.37433 8.31848 7.22497C8.26182 7.07221 8.17361 6.8789 8.0378 6.58685C7.85234 6.1891 7.4888 5.55485 7.0725 4.9218C6.65137 4.28142 6.21702 3.70485 5.89962 3.39259L5.89909 3.39206L5.89855 3.39153C5.73107 3.2261 5.61589 3.11889 5.53273 3.0491C5.49233 3.06716 5.44364 3.08866 5.39084 3.11063Z" fill="#928F87"/>
</svg>
