<svg width="24" height="24" viewBox="0 0 24 24" fill="none" xmlns="http://www.w3.org/2000/svg">
<path d="M12.0121 4.4624L9.7996 8.94599L4.84961 9.66552L8.43085 13.1577L7.58476 18.0866L12.0121 15.7593L16.4394 18.0842L15.5933 13.1554L19.1746 9.66552L14.2246 8.94599L12.0121 4.4624Z" fill="#FD6342"/>
<path d="M21.2958 8.26876L15.345 7.40391L12.6849 2.01095C12.6122 1.86329 12.4927 1.74376 12.345 1.6711C11.9747 1.48829 11.5247 1.64063 11.3395 2.01095L8.67938 7.40391L2.7286 8.26876C2.56453 8.2922 2.41453 8.36954 2.29969 8.48673C2.16085 8.62943 2.08434 8.82141 2.08698 9.0205C2.08962 9.21958 2.17118 9.40947 2.31375 9.54845L6.61922 13.7461L5.60204 19.6734C5.57818 19.8113 5.59344 19.9531 5.64608 20.0828C5.69872 20.2124 5.78663 20.3248 5.89985 20.407C6.01307 20.4892 6.14707 20.5381 6.28665 20.548C6.42622 20.558 6.56579 20.5286 6.68954 20.4633L12.0122 17.6649L17.3349 20.4633C17.4802 20.5406 17.6489 20.5664 17.8106 20.5383C18.2185 20.468 18.4927 20.0813 18.4224 19.6734L17.4052 13.7461L21.7106 9.54845C21.8278 9.4336 21.9052 9.2836 21.9286 9.11954C21.9919 8.70938 21.706 8.3297 21.2958 8.26876ZM15.5934 13.1555L16.4395 18.0844L12.0122 15.7594L7.58485 18.0867L8.43094 13.1578L4.84969 9.66563L9.7997 8.9461L12.0122 4.46251L14.2247 8.9461L19.1747 9.66563L15.5934 13.1555Z" fill="#FD6342"/>
</svg>
